<?xml version="1.0" standalone="no"?>
<!DOCTYPE svg PUBLIC "-//W3C//DTD SVG 20010904//EN"
 "http://www.w3.org/TR/2001/REC-SVG-20010904/DTD/svg10.dtd">
<svg version="1.0" xmlns="http://www.w3.org/2000/svg"
 width="576.000000pt" height="576.000000pt" viewBox="0 0 576.000000 576.000000"
 preserveAspectRatio="xMidYMid meet">
<metadata>
Created by potrace 1.11, written by Peter Selinger 2001-2013
</metadata>
<g transform="translate(0.000000,576.000000) scale(0.100000,-0.100000)"
fill="#000000" stroke="none">
<path d="M3685 5120 c-7 -11 -7 -12 20 -15 11 -2 42 -8 69 -14 27 -7 51 -10
53 -7 3 2 -20 9 -51 16 -31 6 -58 16 -61 21 -8 12 -22 12 -30 -1z"/>
<path d="M1970 5095 c0 -8 7 -15 15 -15 8 0 15 7 15 15 0 8 -7 15 -15 15 -8 0
-15 -7 -15 -15z"/>
<path d="M1938 5083 c7 -3 16 -2 19 1 4 3 -2 6 -13 5 -11 0 -14 -3 -6 -6z"/>
<path d="M1890 5073 c0 -6 -28 -9 -65 -7 -49 2 -65 0 -65 -10 0 -12 -82 -42
-102 -38 -5 1 -8 -3 -8 -9 0 -5 -4 -8 -8 -5 -5 3 -57 -8 -118 -23 -60 -15
-114 -26 -121 -24 -6 2 -14 -1 -18 -7 -8 -13 25 -26 34 -14 5 9 166 54 187 54
5 0 -24 -18 -65 -40 -41 -21 -91 -53 -112 -70 -21 -16 -41 -30 -44 -30 -9 0
-178 -173 -195 -200 -8 -13 -25 -34 -37 -47 -12 -13 -20 -23 -17 -23 3 0 -3
-12 -13 -27 -11 -16 -32 -56 -48 -90 -16 -34 -32 -60 -37 -57 -4 3 -8 -2 -8
-11 0 -35 -32 -125 -44 -125 -8 0 -13 -11 -13 -25 0 -14 3 -25 7 -25 4 0 1
-26 -6 -57 -7 -31 -11 -60 -8 -64 2 -4 0 -10 -6 -14 -12 -7 -14 -45 -2 -45 4
0 7 -37 8 -82 0 -101 10 -202 23 -246 5 -18 10 -36 10 -40 2 -14 33 -107 46
-137 26 -59 38 -90 37 -97 -1 -4 16 -33 38 -64 22 -32 40 -68 40 -82 0 -18 4
-23 15 -18 29 11 144 -191 200 -348 31 -89 57 -187 51 -194 -3 -2 1 -17 9 -32
8 -15 16 -43 19 -61 2 -19 9 -70 16 -113 6 -43 8 -101 5 -127 -4 -30 -3 -49 3
-49 9 0 17 -44 27 -155 14 -154 16 -180 20 -184 2 -2 0 -12 -5 -21 -7 -13 -5
-21 4 -29 8 -6 16 -43 20 -84 4 -39 11 -91 17 -114 5 -22 11 -62 14 -88 2 -26
7 -55 10 -65 3 -11 -1 -20 -10 -24 -15 -5 -15 -8 -1 -28 9 -12 16 -35 16 -51
0 -19 4 -26 12 -21 6 4 8 3 5 -2 -3 -5 1 -41 10 -79 8 -39 17 -81 19 -95 3
-14 9 -41 13 -61 5 -21 5 -42 1 -49 -10 -16 -1 -50 13 -47 6 1 20 -41 33 -93
12 -52 25 -108 29 -124 5 -20 5 -27 -3 -22 -7 4 -10 -5 -10 -24 1 -21 5 -29
14 -26 9 3 15 -7 20 -29 3 -19 9 -33 13 -32 4 1 21 -12 37 -29 36 -39 109 -85
120 -76 4 4 4 1 0 -6 -6 -9 -1 -11 19 -8 17 3 28 0 32 -10 7 -18 53 -19 53 0
0 8 9 12 25 11 14 -2 28 1 31 6 3 6 11 3 18 -7 7 -9 18 -14 24 -10 17 10 15
26 -4 26 -8 0 5 16 31 36 34 26 50 32 59 25 18 -15 26 -3 26 36 0 20 8 41 21
54 16 16 19 29 15 52 -3 20 6 75 25 147 16 63 32 126 35 140 8 39 161 653 204
817 6 24 16 42 23 40 8 -1 12 12 12 38 0 90 101 197 218 230 43 12 62 14 65 6
5 -14 62 -14 62 0 0 16 56 1 129 -34 102 -51 168 -142 155 -214 -4 -24 -3 -34
3 -30 14 9 30 -12 37 -48 3 -16 37 -155 76 -308 38 -153 72 -292 75 -309 3
-17 8 -35 11 -40 3 -5 7 -20 10 -34 3 -14 12 -51 20 -82 9 -32 18 -66 20 -77
7 -40 32 -141 43 -174 6 -19 8 -52 5 -73 -5 -31 -4 -38 10 -38 9 0 16 -7 16
-15 0 -8 5 -15 11 -15 5 0 8 -4 5 -9 -7 -10 38 -58 85 -92 23 -16 28 -24 18
-30 -23 -14 4 -34 28 -20 10 6 12 11 6 11 -7 0 -13 5 -13 12 0 7 6 5 18 -4 9
-9 25 -14 35 -13 10 2 21 -3 24 -11 7 -18 49 -18 56 0 4 10 16 13 39 9 18 -2
40 -5 48 -6 8 -1 15 3 15 8 0 6 -13 9 -30 8 l-30 -1 34 11 c42 14 136 103 145
139 3 16 11 27 17 25 14 -3 21 34 9 48 -5 6 -2 34 6 65 8 30 17 67 19 82 3 15
9 38 14 51 6 14 7 27 5 30 -3 3 3 8 14 11 18 6 23 30 10 51 -3 6 3 48 13 95
10 47 21 96 24 110 3 14 8 39 12 55 4 17 7 45 7 63 0 18 2 28 6 23 3 -6 11 -1
18 10 10 16 10 20 -1 25 -11 4 -12 16 -6 57 5 29 11 70 14 92 4 22 8 51 10 65
2 14 7 52 11 85 3 33 13 68 22 78 10 11 12 21 6 25 -10 7 -10 12 0 112 24 225
27 245 41 252 10 6 11 16 3 44 -10 37 -6 86 17 227 24 139 85 337 132 426 13
24 23 48 23 53 0 5 23 45 51 89 34 53 57 79 70 79 17 0 24 11 20 33 -2 13 41
87 51 87 4 0 8 7 8 15 0 8 4 15 10 15 5 0 14 10 20 23 11 21 10 21 -4 3 -22
-27 -20 -18 8 40 63 131 98 290 100 451 0 66 4 116 8 110 4 -7 8 -22 8 -34 0
-13 4 -23 10 -23 5 0 8 6 5 13 -23 73 -45 187 -41 223 3 32 0 44 -10 44 -7 0
-16 12 -20 28 -5 26 -9 41 -13 52 -2 5 -18 71 -26 105 -11 46 -23 79 -24 63
-1 -9 3 -28 9 -42 19 -50 -9 -25 -44 40 -104 188 -271 350 -464 449 -54 28
-48 30 28 10 30 -8 56 -12 58 -10 2 2 -16 9 -39 15 -24 6 -59 15 -78 20 -19 5
-38 7 -43 4 -4 -3 -8 0 -8 5 0 6 -3 10 -7 9 -21 -4 -103 26 -103 38 0 10 -14
13 -60 10 -40 -3 -60 0 -60 8 0 6 -5 4 -10 -4 -6 -10 -10 -11 -10 -2 0 6 -5
12 -11 12 -5 0 -8 -3 -6 -7 3 -5 -35 -9 -83 -10 -48 -1 -108 -7 -132 -13 -23
-7 -44 -12 -46 -11 -1 1 -16 -6 -32 -14 -17 -9 -30 -13 -30 -9 0 4 -6 2 -13
-4 -7 -6 -24 -15 -39 -21 -23 -9 -25 -7 -21 10 7 24 -10 25 -28 0 -23 -32
-170 -134 -203 -141 -17 -4 -30 -12 -29 -18 3 -12 -62 -36 -76 -28 -12 8 -21
-28 -11 -44 4 -7 17 -11 28 -8 11 3 36 -5 59 -21 22 -14 65 -42 97 -61 41 -25
55 -40 52 -52 -3 -14 2 -18 21 -18 36 0 62 -37 63 -88 0 -36 -4 -45 -20 -49
-13 -3 -20 -14 -20 -29 0 -38 -45 -59 -117 -55 -16 1 -23 7 -23 21 0 15 -7 20
-29 20 -21 0 -84 35 -211 118 -99 64 -211 136 -248 159 -37 23 -66 47 -64 53
1 6 -2 9 -8 5 -9 -6 -63 27 -240 145 -30 20 -55 43 -55 51 0 9 -14 16 -40 20
-22 3 -59 15 -82 27 -23 12 -48 20 -55 19 -7 -2 -10 -2 -6 0 4 3 2 13 -5 23
-10 17 -13 17 -27 5 -12 -11 -24 -12 -52 -5 -20 6 -69 12 -109 15 -41 2 -84 7
-96 11 -13 3 -23 2 -23 -3z m1526 -108 c-11 -8 -25 -15 -30 -15 -6 0 -2 7 8
15 11 8 25 15 30 15 6 0 2 -7 -8 -15z m1298 -541 c3 -8 2 -12 -4 -9 -6 3 -10
10 -10 16 0 14 7 11 14 -7z m-3747 -366 c-3 -8 -6 -5 -6 6 -1 11 2 17 5 13 3
-3 4 -12 1 -19z m1244 -3271 c-10 -9 -11 -8 -5 6 3 10 9 15 12 12 3 -3 0 -11
-7 -18z"/>
<path d="M4323 4953 c9 -3 17 -9 17 -14 0 -5 7 -9 15 -9 8 0 15 6 15 13 0 9
-12 14 -32 14 -18 0 -25 -2 -15 -4z"/>
<path d="M1087 4639 c-13 -44 -46 -213 -43 -216 2 -2 14 38 26 89 13 51 27 99
33 106 7 9 7 16 -1 24 -8 8 -12 8 -15 -3z"/>
<path d="M4655 4640 c-7 -12 2 -30 16 -30 12 0 12 27 0 35 -5 3 -12 1 -16 -5z"/>
<path d="M4676 4575 c8 -37 14 -45 14 -19 0 10 -5 26 -10 34 -8 11 -9 7 -4
-15z"/>
<path d="M934 3998 c-4 -18 -9 -40 -11 -48 -2 -8 -5 -21 -5 -27 -1 -7 -5 -13
-10 -13 -4 0 -8 -9 -8 -20 0 -11 6 -20 14 -20 9 0 14 12 15 33 0 32 2 46 16
100 4 15 5 27 2 27 -3 0 -9 -15 -13 -32z"/>
<path d="M4821 3973 c0 -4 4 -17 9 -28 8 -19 9 -19 9 2 1 12 -3 25 -9 28 -5 3
-10 3 -9 -2z"/>
<path d="M4836 3905 c-3 -10 -2 -23 4 -29 15 -15 24 1 13 26 -9 20 -10 20 -17
3z"/>
<path d="M985 3560 c-4 -6 7 -25 24 -43 17 -17 40 -43 52 -57 12 -14 5 -1 -15
28 -20 28 -36 59 -36 67 0 17 -16 20 -25 5z"/>
<path d="M4754 3554 c-4 -10 -18 -35 -32 -54 -23 -32 -21 -31 18 8 30 31 39
47 31 55 -7 7 -12 5 -17 -9z"/>
<path d="M1755 788 c-9 -22 4 -43 17 -30 7 7 7 16 0 29 -10 17 -11 17 -17 1z"/>
<path d="M3986 784 c-4 -10 -2 -22 3 -27 7 -7 13 -5 17 7 4 10 2 22 -3 27 -7
7 -13 5 -17 -7z"/>
<path d="M3532 776 c1 -10 8 -17 13 -17 15 1 12 24 -3 29 -9 3 -13 -2 -10 -12z"/>
<path d="M1855 691 c-3 -5 -1 -12 4 -15 13 -8 42 4 35 15 -7 12 -31 12 -39 0z"/>
</g>
</svg>
